<?xml version="1.0" encoding="UTF-8"?>
<svg id="Layer_1" data-name="Layer 1" xmlns="http://www.w3.org/2000/svg" viewBox="0 0 104 297.5">
  <defs>
    <style>
      .cls-1 {
        fill: #3a3a3a;
      }
    </style>
  </defs>
  <path class="cls-1" d="M52,1c10.20093,0,18.5,8.29904,18.5,18.49992V197.96832l.62463,.25296c19.36359,7.84103,31.87537,26.39902,31.87537,47.27872,0,28.12149-22.87848,51-51,51S1,273.62149,1,245.5c0-20.8797,12.51178-39.43768,31.87537-47.27872l.62463-.25296V19.49992c0-10.20088,8.29907-18.49992,18.5-18.49992m0-1c-10.76953,0-19.5,8.73042-19.5,19.49992V197.29437C13.44629,205.00995,0,223.67938,0,245.5c0,28.71881,23.28119,52,52,52s52-23.28119,52-52c0-21.82062-13.44629-40.49005-32.5-48.20563V19.49992C71.5,8.73042,62.76953,0,52,0h0Z"/>
</svg>